<svg width="119" height="36" viewBox="0 0 119 36" fill="none" xmlns="http://www.w3.org/2000/svg">
<rect x="0.5" y="0.5" width="118" height="35" rx="4.37828" fill="black"/>
<path d="M25.4632 11.1841C26.7125 11.4015 27.9273 11.7854 29.0756 12.3258C31.0573 15.3021 32.0419 18.659 31.6783 22.5308C30.1621 23.671 28.6914 24.3627 27.2453 24.8154C26.8861 24.3191 26.5687 23.7934 26.2965 23.2439C26.8162 23.0451 27.3171 22.7998 27.7933 22.511C27.6687 22.4171 27.5466 22.3199 27.427 22.2196C24.5805 23.575 21.4501 23.575 18.5692 22.2196C18.4507 22.32 18.3282 22.4177 18.2028 22.511C18.6783 22.799 19.1783 23.0438 19.6971 23.2424C19.4246 23.7918 19.1072 24.3175 18.7482 24.8141C17.3035 24.3614 15.8342 23.6696 14.3179 22.5308C14.0079 19.1909 14.6276 15.8029 16.9137 12.3285C18.0626 11.7864 19.2785 11.4015 20.5289 11.1841C20.6859 11.467 20.8718 11.8476 20.9971 12.1503C22.3192 11.9467 23.6536 11.9467 25.0005 12.1503C25.1385 11.8206 25.293 11.4981 25.4632 11.1841ZM20.0896 16.8737C19.2096 16.8737 18.5155 17.6872 18.5155 18.676C18.5155 19.6648 19.2247 20.4768 20.0896 20.4768C20.9696 20.4768 21.6651 19.6648 21.6637 18.676C21.6788 17.6857 20.9696 16.8737 20.0896 16.8737ZM25.9067 16.8737C25.0266 16.8737 24.3326 17.6872 24.3326 18.676C24.3326 19.6648 25.0418 20.4768 25.9067 20.4768C26.7867 20.4768 27.4808 19.6648 27.4808 18.676C27.4959 17.6857 26.7867 16.8737 25.9067 16.8737Z" fill="white"/>
<path d="M37.0445 22.5V20.988C37.4525 20.98 37.7685 20.964 37.9925 20.94C38.2245 20.908 38.3925 20.84 38.4965 20.736C38.6005 20.632 38.6605 20.468 38.6765 20.244C38.7005 20.02 38.7125 19.716 38.7125 19.332V14.244H40.8005V18.792C40.8005 19.504 40.7845 20.092 40.7525 20.556C40.7205 21.02 40.6405 21.384 40.5125 21.648C40.3925 21.912 40.1965 22.104 39.9245 22.224C39.6605 22.344 39.2925 22.42 38.8205 22.452C38.3565 22.484 37.7645 22.5 37.0445 22.5ZM45.0635 22.596C44.5195 22.596 44.0675 22.564 43.7075 22.5C43.3475 22.436 43.0635 22.332 42.8555 22.188C42.6475 22.044 42.4955 21.852 42.3995 21.612C42.3035 21.372 42.2395 21.072 42.2075 20.712C42.1835 20.352 42.1715 19.924 42.1715 19.428C42.1715 18.932 42.1835 18.508 42.2075 18.156C42.2395 17.796 42.3035 17.496 42.3995 17.256C42.4955 17.016 42.6475 16.824 42.8555 16.68C43.0635 16.536 43.3475 16.436 43.7075 16.38C44.0675 16.316 44.5195 16.284 45.0635 16.284C45.6155 16.284 46.0715 16.316 46.4315 16.38C46.7915 16.436 47.0755 16.536 47.2835 16.68C47.4915 16.824 47.6435 17.016 47.7395 17.256C47.8355 17.496 47.8955 17.796 47.9195 18.156C47.9515 18.508 47.9675 18.932 47.9675 19.428C47.9675 19.924 47.9515 20.352 47.9195 20.712C47.8955 21.072 47.8355 21.372 47.7395 21.612C47.6435 21.852 47.4915 22.044 47.2835 22.188C47.0755 22.332 46.7915 22.436 46.4315 22.5C46.0715 22.564 45.6155 22.596 45.0635 22.596ZM45.0635 21.132C45.3035 21.132 45.4915 21.116 45.6275 21.084C45.7635 21.052 45.8595 20.98 45.9155 20.868C45.9715 20.756 46.0035 20.584 46.0115 20.352C46.0275 20.12 46.0355 19.812 46.0355 19.428C46.0355 19.044 46.0275 18.74 46.0115 18.516C46.0035 18.292 45.9715 18.124 45.9155 18.012C45.8595 17.9 45.7635 17.828 45.6275 17.796C45.4915 17.764 45.3035 17.748 45.0635 17.748C44.8235 17.748 44.6355 17.764 44.4995 17.796C44.3715 17.828 44.2795 17.9 44.2235 18.012C44.1675 18.124 44.1315 18.292 44.1155 18.516C44.1075 18.74 44.1035 19.044 44.1035 19.428C44.1035 19.812 44.1075 20.12 44.1155 20.352C44.1315 20.584 44.1675 20.756 44.2235 20.868C44.2795 20.98 44.3715 21.052 44.4995 21.084C44.6355 21.116 44.8235 21.132 45.0635 21.132ZM49.2304 15.132V13.584H51.2104V15.132H49.2304ZM49.2544 22.5V16.38H51.1984V22.5H49.2544ZM52.688 22.5V16.38H54.512L54.56 17.124H54.668C54.788 16.916 54.936 16.752 55.112 16.632C55.288 16.504 55.488 16.416 55.712 16.368C55.936 16.312 56.18 16.284 56.444 16.284C56.852 16.284 57.176 16.336 57.416 16.44C57.664 16.544 57.852 16.696 57.98 16.896C58.108 17.096 58.192 17.344 58.232 17.64C58.28 17.936 58.304 18.28 58.304 18.672V22.5H56.372V19.26C56.372 18.932 56.364 18.676 56.348 18.492C56.332 18.3 56.296 18.16 56.24 18.072C56.184 17.984 56.096 17.932 55.976 17.916C55.864 17.892 55.712 17.88 55.52 17.88C55.32 17.88 55.156 17.904 55.028 17.952C54.908 17.992 54.816 18.064 54.752 18.168C54.696 18.272 54.656 18.42 54.632 18.612C54.616 18.796 54.608 19.028 54.608 19.308V22.5H52.688ZM62.921 22.5V14.244H65.813C66.549 14.244 67.149 14.284 67.613 14.364C68.077 14.436 68.441 14.564 68.705 14.748C68.969 14.924 69.157 15.172 69.269 15.492C69.389 15.804 69.465 16.196 69.497 16.668C69.529 17.14 69.545 17.708 69.545 18.372C69.545 19.036 69.529 19.604 69.497 20.076C69.465 20.548 69.389 20.944 69.269 21.264C69.157 21.576 68.969 21.824 68.705 22.008C68.441 22.184 68.077 22.312 67.613 22.392C67.149 22.464 66.549 22.5 65.813 22.5H62.921ZM65.009 20.892H65.765C66.093 20.892 66.361 20.884 66.569 20.868C66.777 20.844 66.941 20.796 67.061 20.724C67.189 20.644 67.277 20.516 67.325 20.34C67.381 20.156 67.413 19.908 67.421 19.596C67.437 19.276 67.445 18.868 67.445 18.372C67.445 17.876 67.437 17.472 67.421 17.16C67.413 16.84 67.381 16.592 67.325 16.416C67.269 16.232 67.181 16.1 67.061 16.02C66.941 15.94 66.777 15.892 66.569 15.876C66.361 15.86 66.093 15.852 65.765 15.852H65.009V20.892ZM70.9218 15.132V13.584H72.9018V15.132H70.9218ZM70.9458 22.5V16.38H72.8898V22.5H70.9458ZM76.7554 22.596C76.4994 22.596 76.2194 22.588 75.9154 22.572C75.6194 22.556 75.3274 22.536 75.0394 22.512C74.7594 22.488 74.5074 22.46 74.2834 22.428V21.072C74.4114 21.08 74.5554 21.092 74.7154 21.108C74.8834 21.124 75.0554 21.136 75.2314 21.144C75.4074 21.152 75.5754 21.16 75.7354 21.168C75.9034 21.168 76.0554 21.168 76.1914 21.168C76.5674 21.168 76.8354 21.156 76.9954 21.132C77.1634 21.108 77.2674 21.06 77.3074 20.988C77.3554 20.908 77.3794 20.804 77.3794 20.676C77.3794 20.548 77.3634 20.456 77.3314 20.4C77.3074 20.344 77.2514 20.304 77.1634 20.28C77.0834 20.256 76.9434 20.232 76.7434 20.208L75.3154 20.028C74.9714 19.98 74.7114 19.88 74.5354 19.728C74.3594 19.568 74.2394 19.356 74.1754 19.092C74.1194 18.82 74.0914 18.504 74.0914 18.144C74.0914 17.72 74.1554 17.388 74.2834 17.148C74.4114 16.9 74.5874 16.716 74.8114 16.596C75.0434 16.468 75.3154 16.384 75.6274 16.344C75.9474 16.304 76.2874 16.284 76.6474 16.284C76.9034 16.284 77.1674 16.292 77.4394 16.308C77.7114 16.324 77.9714 16.348 78.2194 16.38C78.4674 16.404 78.6714 16.432 78.8314 16.464V17.808C78.6314 17.792 78.4194 17.776 78.1954 17.76C77.9794 17.744 77.7714 17.732 77.5714 17.724C77.3714 17.716 77.2034 17.712 77.0674 17.712C76.7474 17.712 76.4994 17.72 76.3234 17.736C76.1554 17.752 76.0394 17.792 75.9754 17.856C75.9194 17.92 75.8914 18.024 75.8914 18.168C75.8914 18.28 75.8994 18.368 75.9154 18.432C75.9394 18.488 75.9914 18.528 76.0714 18.552C76.1514 18.576 76.2754 18.6 76.4434 18.624L77.8834 18.804C78.1554 18.836 78.3874 18.9 78.5794 18.996C78.7714 19.092 78.9154 19.264 79.0114 19.512C79.1154 19.76 79.1674 20.132 79.1674 20.628C79.1674 21.076 79.1074 21.432 78.9874 21.696C78.8754 21.952 78.7114 22.148 78.4954 22.284C78.2794 22.412 78.0234 22.496 77.7274 22.536C77.4394 22.576 77.1154 22.596 76.7554 22.596ZM82.8394 22.596C82.3274 22.596 81.9074 22.552 81.5794 22.464C81.2514 22.368 80.9914 22.236 80.7994 22.068C80.6074 21.892 80.4674 21.676 80.3794 21.42C80.2914 21.164 80.2354 20.872 80.2114 20.544C80.1874 20.208 80.1754 19.84 80.1754 19.44C80.1754 19.048 80.1874 18.688 80.2114 18.36C80.2354 18.032 80.2954 17.74 80.3914 17.484C80.4874 17.22 80.6274 17 80.8114 16.824C81.0034 16.648 81.2594 16.516 81.5794 16.428C81.9074 16.332 82.3234 16.284 82.8274 16.284C83.1474 16.284 83.4674 16.3 83.7874 16.332C84.1154 16.364 84.4074 16.412 84.6634 16.476V17.832C84.5034 17.808 84.2954 17.788 84.0394 17.772C83.7914 17.756 83.5594 17.748 83.3434 17.748C83.0634 17.748 82.8434 17.772 82.6834 17.82C82.5234 17.86 82.4034 17.94 82.3234 18.06C82.2434 18.172 82.1874 18.34 82.1554 18.564C82.1314 18.788 82.1194 19.08 82.1194 19.44C82.1194 19.8 82.1314 20.096 82.1554 20.328C82.1874 20.552 82.2434 20.724 82.3234 20.844C82.4034 20.956 82.5274 21.032 82.6954 21.072C82.8634 21.112 83.0834 21.132 83.3554 21.132C83.5474 21.132 83.7634 21.124 84.0034 21.108C84.2514 21.092 84.4874 21.072 84.7114 21.048V22.404C84.4474 22.46 84.1474 22.504 83.8114 22.536C83.4754 22.576 83.1514 22.596 82.8394 22.596ZM88.6221 22.596C88.0781 22.596 87.6261 22.564 87.2661 22.5C86.9061 22.436 86.6221 22.332 86.4141 22.188C86.2061 22.044 86.0541 21.852 85.9581 21.612C85.8621 21.372 85.7981 21.072 85.7661 20.712C85.7421 20.352 85.7301 19.924 85.7301 19.428C85.7301 18.932 85.7421 18.508 85.7661 18.156C85.7981 17.796 85.8621 17.496 85.9581 17.256C86.0541 17.016 86.2061 16.824 86.4141 16.68C86.6221 16.536 86.9061 16.436 87.2661 16.38C87.6261 16.316 88.0781 16.284 88.6221 16.284C89.1741 16.284 89.6301 16.316 89.9901 16.38C90.3501 16.436 90.6341 16.536 90.8421 16.68C91.0501 16.824 91.2021 17.016 91.2981 17.256C91.3941 17.496 91.4541 17.796 91.4781 18.156C91.5101 18.508 91.5261 18.932 91.5261 19.428C91.5261 19.924 91.5101 20.352 91.4781 20.712C91.4541 21.072 91.3941 21.372 91.2981 21.612C91.2021 21.852 91.0501 22.044 90.8421 22.188C90.6341 22.332 90.3501 22.436 89.9901 22.5C89.6301 22.564 89.1741 22.596 88.6221 22.596ZM88.6221 21.132C88.8621 21.132 89.0501 21.116 89.1861 21.084C89.3221 21.052 89.4181 20.98 89.4741 20.868C89.5301 20.756 89.5621 20.584 89.5701 20.352C89.5861 20.12 89.5941 19.812 89.5941 19.428C89.5941 19.044 89.5861 18.74 89.5701 18.516C89.5621 18.292 89.5301 18.124 89.4741 18.012C89.4181 17.9 89.3221 17.828 89.1861 17.796C89.0501 17.764 88.8621 17.748 88.6221 17.748C88.3821 17.748 88.1941 17.764 88.0581 17.796C87.9301 17.828 87.8381 17.9 87.7821 18.012C87.7261 18.124 87.6901 18.292 87.6741 18.516C87.6661 18.74 87.6621 19.044 87.6621 19.428C87.6621 19.812 87.6661 20.12 87.6741 20.352C87.6901 20.584 87.7261 20.756 87.7821 20.868C87.8381 20.98 87.9301 21.052 88.0581 21.084C88.1941 21.116 88.3821 21.132 88.6221 21.132ZM92.813 22.5V16.38H94.637L94.685 17.424H94.793C94.905 17.128 95.045 16.896 95.213 16.728C95.389 16.56 95.601 16.444 95.849 16.38C96.097 16.316 96.385 16.284 96.713 16.284V18.048C96.209 18.048 95.813 18.112 95.525 18.24C95.237 18.368 95.033 18.588 94.913 18.9C94.793 19.204 94.733 19.632 94.733 20.184V22.5H92.813ZM99.4763 22.596C99.1243 22.596 98.8203 22.548 98.5643 22.452C98.3083 22.356 98.1003 22.192 97.9403 21.96C97.7803 21.72 97.6603 21.396 97.5803 20.988C97.5083 20.58 97.4723 20.068 97.4723 19.452C97.4723 18.844 97.5083 18.336 97.5803 17.928C97.6523 17.512 97.7683 17.188 97.9283 16.956C98.0883 16.716 98.2923 16.544 98.5403 16.44C98.7963 16.336 99.1043 16.284 99.4643 16.284C99.7043 16.284 99.9283 16.304 100.136 16.344C100.352 16.384 100.548 16.456 100.724 16.56C100.9 16.664 101.052 16.82 101.18 17.028H101.276V13.584H103.208V22.5H101.372L101.324 21.768H101.228C101.108 22 100.952 22.176 100.76 22.296C100.576 22.408 100.372 22.484 100.148 22.524C99.9323 22.572 99.7083 22.596 99.4763 22.596ZM100.34 21.012C100.588 21.012 100.772 20.984 100.892 20.928C101.02 20.864 101.112 20.752 101.168 20.592C101.216 20.448 101.244 20.284 101.252 20.1C101.268 19.908 101.276 19.688 101.276 19.44C101.276 19.192 101.268 18.976 101.252 18.792C101.244 18.608 101.216 18.452 101.168 18.324C101.12 18.148 101.032 18.028 100.904 17.964C100.776 17.9 100.588 17.868 100.34 17.868C100.124 17.868 99.9523 17.884 99.8243 17.916C99.6963 17.948 99.6003 18.016 99.5363 18.12C99.4803 18.216 99.4443 18.368 99.4283 18.576C99.4123 18.784 99.4043 19.072 99.4043 19.44C99.4043 19.808 99.4123 20.1 99.4283 20.316C99.4443 20.524 99.4803 20.68 99.5363 20.784C99.6003 20.88 99.6963 20.944 99.8243 20.976C99.9523 21 100.124 21.012 100.34 21.012Z" fill="white"/>
</svg>
